<svg width="101" height="100" viewBox="0 0 101 100" fill="red" xmlns="http://www.w3.org/2000/svg">
<rect x="0.5" width="100" height="100" rx="20" fill="white"/>
<path fill-rule="evenodd" clip-rule="evenodd" d="M20.5 50C20.5 47.5147 22.5147 45.5 25 45.5H37C38.3807 45.5 39.5 46.6193 39.5 48V77C39.5 78.3807 38.3807 79.5 37 79.5H25C22.5147 79.5 20.5 77.4853 20.5 75V50ZM25.5 50.5V74.5H34.5V50.5H25.5Z" fill="#0966FF"/>
<path fill-rule="evenodd" clip-rule="evenodd" d="M47 24.5C46.7239 24.5 46.5 24.7239 46.5 25V34C46.5 34.3881 46.4096 34.7709 46.2361 35.118L38.7361 50.118C38.1186 51.353 36.6169 51.8535 35.382 51.2361C34.147 50.6186 33.6465 49.1169 34.2639 47.882L41.5 33.4098V25C41.5 21.9624 43.9624 19.5 47 19.5H49C54.2467 19.5 58.5 23.7533 58.5 29V40H70.1566C77.2256 40 82.275 46.844 80.1891 53.5983L75.7188 68.0736C73.7127 74.5696 67.7076 79 60.9089 79H36.5C35.1193 79 34 77.8807 34 76.5C34 75.1193 35.1193 74 36.5 74H60.9089C65.5144 74 69.5824 70.9987 70.9414 66.5983L75.4117 52.1229C76.5043 48.585 73.8594 45 70.1566 45H56C54.6193 45 53.5 43.8807 53.5 42.5V29C53.5 26.5147 51.4853 24.5 49 24.5H47Z" fill="#0966FF"/>
</svg>
